<?xml version="1.0" encoding="UTF-8"?>
<!DOCTYPE svg PUBLIC "-//W3C//DTD SVG 1.1//EN" "http://www.w3.org/Graphics/SVG/1.1/DTD/svg11.dtd">
<svg xmlns="http://www.w3.org/2000/svg" version="1.1" width="700px" height="500px" style="shape-rendering:geometricPrecision; text-rendering:geometricPrecision; image-rendering:optimizeQuality; fill-rule:evenodd; clip-rule:evenodd" xmlns:xlink="http://www.w3.org/1999/xlink">
<g><path style="opacity:0.975" fill="#f7f7f7" d="M 306.5,131.5 C 340.859,129.095 367.026,142.428 385,171.5C 400.801,204.53 398.634,236.197 378.5,266.5C 384.333,272.833 390.167,279.167 396,285.5C 399.379,283.077 402.879,282.91 406.5,285C 424.968,305.136 443.801,324.969 463,344.5C 463.667,345.5 463.667,346.5 463,347.5C 455.135,355.03 447.635,362.864 440.5,371C 437.564,370.107 435.064,368.274 433,365.5C 416.333,347.5 399.667,329.5 383,311.5C 379.615,307.202 379.781,303.035 383.5,299C 377.468,293.302 371.801,287.302 366.5,281C 365.092,280.685 363.759,281.018 362.5,282C 349.374,292.913 334.207,298.08 317,297.5C 281.324,295.492 256.991,277.826 244,244.5C 232.084,206.261 240.918,173.761 270.5,147C 281.447,139.191 293.447,134.024 306.5,131.5 Z M 311.5,149.5 C 339.483,149.234 359.65,161.567 372,186.5C 380.512,209.005 378.845,230.672 367,251.5C 345.793,279.427 319.293,285.927 287.5,271C 261.684,252.517 252.184,227.683 259,196.5C 267.328,170.327 284.828,154.66 311.5,149.5 Z"/></g>
</svg>
